<svg xmlns="http://www.w3.org/2000/svg" width="45" height="45" viewBox="0 0 45 45" fill="none"><path d="M15.1389 19.71C15.1389 18.94 14.5089 18.3 13.7389 18.3C12.9789 18.3 12.3589 18.91 12.3389 19.67C12.3189 20.44 12.9489 21.09 13.7189 21.1C14.4889 21.11 15.1289 20.48 15.1389 19.71ZM19.8389 21.1C20.6089 21.1 21.2389 20.45 21.2289 19.68C21.2289 18.92 20.5989 18.3 19.8389 18.3C19.0689 18.3 18.4289 18.93 18.4289 19.7C18.4289 20.47 19.0689 21.1 19.8389 21.1ZM27.3189 19.69C27.3189 18.92 26.6689 18.29 25.8989 18.31C25.1389 18.32 24.5289 18.95 24.5289 19.71C24.5289 20.48 25.1689 21.11 25.9389 21.11C26.7089 21.11 27.3389 20.46 27.3289 19.7L27.3189 19.69ZM32.0289 21.1C32.7989 21.1 33.4289 20.45 33.4089 19.68C33.3989 18.92 32.7689 18.31 32.0189 18.31C31.2489 18.31 30.6189 18.94 30.6189 19.71C30.6189 20.48 31.2589 21.11 32.0289 21.1ZM13.7489 27.19C14.5189 27.19 15.1489 26.54 15.1389 25.77C15.1389 25.01 14.5089 24.39 13.7489 24.39C12.9789 24.39 12.3389 25.02 12.3389 25.79C12.3389 26.56 12.9789 27.19 13.7489 27.19ZM19.8089 24.39C19.0389 24.39 18.4189 25.04 18.4289 25.81C18.4389 26.57 19.0689 27.18 19.8289 27.18C20.5989 27.18 21.2289 26.54 21.2289 25.77C21.2289 25 20.5789 24.37 19.8189 24.38L19.8089 24.39ZM15.1289 31.88C15.1289 31.11 14.4889 30.48 13.7189 30.49C12.9589 30.49 12.3389 31.12 12.3289 31.87C12.3289 32.64 12.9489 33.28 13.7189 33.28C14.4889 33.28 15.1289 32.65 15.1189 31.88H15.1289ZM19.8189 30.49C19.0489 30.49 18.4189 31.13 18.4289 31.9C18.4289 32.66 19.0589 33.28 19.8189 33.28C20.5889 33.28 21.2289 32.65 21.2289 31.88C21.2289 31.11 20.5889 30.48 19.8189 30.48V30.49Z" fill="white"></path><path d="M40.8389 21.66C40.6989 21.9 40.5989 22.18 40.4089 22.37C40.0089 22.78 39.4989 22.89 38.9589 22.69C38.4189 22.49 38.1189 22.08 38.0489 21.51C38.0289 21.35 38.0389 21.18 38.0389 21.02C38.0389 18.56 38.0389 16.1 38.0389 13.63C38.0389 11.77 36.8689 10.59 35.0089 10.59C34.4989 10.59 33.9889 10.59 33.4189 10.59C33.4189 11.08 33.4389 11.55 33.4189 12.03C33.3689 13.13 32.1989 13.75 31.2889 13.18C30.8489 12.9 30.6389 12.49 30.6289 11.98C30.6289 11.54 30.6289 11.1 30.6289 10.63H24.2589C24.2589 11.04 24.2589 11.46 24.2589 11.87C24.2589 12.76 23.6889 13.39 22.8789 13.4C22.0589 13.4 21.4689 12.78 21.4589 11.87C21.4589 11.46 21.4589 11.06 21.4589 10.63H15.1589C15.1589 11.05 15.1589 11.47 15.1589 11.88C15.1589 12.77 14.5789 13.4 13.7689 13.4C12.9589 13.4 12.3689 12.78 12.3589 11.9C12.3589 11.48 12.3589 11.06 12.3589 10.57C11.5289 10.61 10.7189 10.57 9.93889 10.72C8.66889 10.98 7.84889 12.08 7.80889 13.41C7.79889 13.77 7.80889 14.13 7.80889 14.49C7.80889 21.34 7.80889 28.19 7.80889 35.04C7.80889 36.27 8.27889 37.23 9.40889 37.76C9.83889 37.96 10.3489 38.04 10.8289 38.05C14.2689 38.07 17.7089 38.06 21.1589 38.05C21.6289 38.05 22.0389 38.16 22.3589 38.52C22.7289 38.94 22.8289 39.43 22.6289 39.95C22.4289 40.47 22.0289 40.77 21.4689 40.84C21.3789 40.85 21.2789 40.85 21.1889 40.85C17.6789 40.85 14.1689 40.86 10.6489 40.85C7.91889 40.84 5.66889 39 5.11889 36.35C5.04889 36.02 5.00889 35.68 5.00889 35.34C5.00889 28 4.98889 20.66 5.00889 13.32C5.00889 10.66 6.88889 8.44 9.50889 7.92C10.0889 7.81 10.6889 7.83 11.2889 7.8C11.6289 7.78 11.9589 7.8 12.3489 7.8C12.3489 7.44 12.3689 7.09 12.3489 6.75C12.2889 5.88 12.6389 5.29 13.4689 5H14.0289C14.8589 5.29 15.2089 5.88 15.1489 6.74C15.1289 7.08 15.1489 7.43 15.1489 7.77H21.4489C21.4489 7.41 21.4689 7.07 21.4489 6.74C21.3889 5.87 21.7389 5.28 22.5689 5H23.1289C23.9589 5.29 24.3089 5.88 24.2489 6.74C24.2289 7.08 24.2489 7.43 24.2489 7.77H30.6189C30.6189 7.41 30.6389 7.07 30.6189 6.74C30.5589 5.87 30.9089 5.28 31.7389 5H32.2989C33.1289 5.29 33.4789 5.88 33.4189 6.75C33.3989 7.09 33.4189 7.44 33.4189 7.81C34.1189 7.81 34.7689 7.78 35.4189 7.81C37.6289 7.93 39.2589 8.99 40.2589 10.96C40.5389 11.52 40.6489 12.17 40.8389 12.77V21.66Z" fill="white"></path><path d="M40.8389 33.08C40.6389 33.88 40.5089 34.7 40.2289 35.47C38.8989 39.1 34.8689 41.41 31.0589 40.73C27.6989 40.13 25.3789 38.21 24.3289 34.98C23.2489 31.66 24.0389 28.66 26.5589 26.24C28.8789 24.02 31.7189 23.34 34.7889 24.28C38.0589 25.28 40.0289 27.58 40.6989 30.95C40.7489 31.19 40.7889 31.43 40.8289 31.67V33.07L40.8389 33.08ZM38.0389 32.37C38.0389 29.25 35.4689 26.7 32.3589 26.71C29.2489 26.71 26.7089 29.26 26.6989 32.37C26.6989 35.49 29.2489 38.05 32.3689 38.05C35.4889 38.05 38.0489 35.49 38.0389 32.37Z" fill="white"></path><path d="M15.1389 19.71C15.1389 20.48 14.4889 21.11 13.7189 21.1C12.9489 21.09 12.3289 20.44 12.3389 19.67C12.3589 18.91 12.9789 18.3 13.7389 18.3C14.5089 18.3 15.1389 18.94 15.1389 19.71Z" fill="white"></path><path d="M19.8488 21.1C19.0788 21.1 18.4388 20.47 18.4388 19.7C18.4388 18.93 19.0788 18.3 19.8488 18.3C20.6088 18.3 21.2288 18.92 21.2388 19.68C21.2388 20.45 20.6188 21.09 19.8488 21.1Z" fill="white"></path><path d="M27.3289 19.69C27.3289 20.46 26.7089 21.1 25.9389 21.1C25.1689 21.1 24.5289 20.47 24.5289 19.7C24.5289 18.94 25.1489 18.32 25.8989 18.3C26.6689 18.29 27.3089 18.91 27.3189 19.68L27.3289 19.69Z" fill="white"></path><path d="M32.0289 21.1C31.2589 21.1 30.6189 20.48 30.6189 19.71C30.6189 18.94 31.2489 18.3 32.0189 18.31C32.7789 18.31 33.3989 18.93 33.4089 19.68C33.4189 20.45 32.7989 21.09 32.0289 21.1Z" fill="white"></path><path d="M13.7489 27.19C12.9789 27.19 12.3389 26.56 12.3389 25.79C12.3389 25.02 12.9789 24.39 13.7489 24.39C14.5089 24.39 15.1289 25.01 15.1389 25.77C15.1489 26.54 14.5189 27.18 13.7489 27.19V27.19Z" fill="white"></path><path d="M19.8188 24.4C20.5888 24.4 21.2288 25.02 21.2288 25.79C21.2288 26.56 20.5988 27.2 19.8288 27.2C19.0688 27.2 18.4488 26.58 18.4288 25.83C18.4188 25.06 19.0388 24.42 19.8088 24.41L19.8188 24.4Z" fill="white"></path><path d="M15.1389 31.88C15.1389 32.65 14.5089 33.28 13.7389 33.28C12.9689 33.28 12.3389 32.64 12.3489 31.87C12.3489 31.11 12.9789 30.49 13.7389 30.49C14.5089 30.49 15.1489 31.11 15.1489 31.88H15.1389Z" fill="white"></path><path d="M19.8288 30.49C20.5988 30.49 21.2388 31.12 21.2388 31.89C21.2388 32.66 20.5988 33.29 19.8288 33.29C19.0688 33.29 18.4488 32.66 18.4388 31.91C18.4388 31.14 19.0588 30.5 19.8288 30.5V30.49Z" fill="white"></path><path d="M33.7689 30.98C34.0189 30.98 34.2289 30.98 34.4389 30.98C35.2189 31.02 35.8089 31.62 35.7989 32.38C35.7989 33.14 35.2089 33.75 34.4189 33.77C33.7289 33.79 33.0489 33.79 32.3589 33.77C31.5689 33.75 30.9889 33.18 30.9689 32.39C30.9489 31.42 30.9489 30.46 30.9689 29.49C30.9789 28.69 31.6089 28.09 32.3789 28.1C33.1389 28.1 33.7289 28.7 33.7589 29.49C33.7689 29.97 33.7589 30.44 33.7589 30.97L33.7689 30.98Z" fill="white"></path></svg>