<svg xmlns="http://www.w3.org/2000/svg" width="45" height="45" viewBox="0 0 45 45" fill="none"><path d="M42.1904 13.7969C40.8104 14.8769 39.5404 15.8769 38.2704 16.8769C35.0704 19.3869 31.8804 21.8969 28.6804 24.4069C27.0304 25.6969 25.4904 25.6869 23.8304 24.3769C20.6704 21.8969 17.5204 19.4069 14.3504 16.9369C14.0904 16.7269 13.7904 16.5769 13.3804 16.3169C12.9904 16.5469 12.2704 16.8869 11.6604 17.3669C10.8204 18.0269 10.8504 19.0069 11.0004 19.9569C11.0604 20.3069 11.2104 20.6569 11.3904 20.9669C12.8604 23.5269 14.3504 26.0769 15.8204 28.6269C16.2404 29.3469 16.8504 29.8269 17.6004 30.1269C18.2704 30.3969 18.9204 30.3769 19.5604 29.9869C20.0704 29.6669 20.6004 29.3769 21.1204 29.0769C22.7204 28.1569 24.3904 28.2769 25.8204 29.4369C26.2004 29.7469 26.5804 30.0769 26.8804 30.4569C28.3904 32.3869 29.8004 34.3869 30.5004 36.7769C30.6504 37.2869 30.7004 37.8369 30.6904 38.3669C30.6704 39.2369 30.2404 39.8969 29.4804 40.3369C24.2904 43.3969 19.2504 42.9469 14.3804 39.6069C12.2704 38.1669 10.5404 36.3069 9.22043 34.1369C7.17043 30.7469 5.14043 27.3269 3.26043 23.8469C1.59043 20.7769 0.760431 17.4369 1.06043 13.9069C1.44043 9.54686 3.46043 6.14686 7.19043 3.81686C7.36043 3.70686 7.55043 3.61686 7.72043 3.50686C9.04043 2.59686 10.2704 3.03686 11.2004 3.84686C12.2104 4.71686 12.9704 5.79686 13.6004 6.96686C14.0904 7.87686 14.5304 8.80686 15.0204 9.71686C15.0904 9.84686 15.2804 9.93686 15.4404 9.99686C15.5504 10.0369 15.6904 9.99686 15.8204 9.99686C24.1604 9.99686 32.4904 9.99686 40.8304 9.99686C41.2704 9.99686 41.7304 10.0169 42.1504 10.1269C43.4704 10.4669 44.2304 11.4769 44.2304 12.8369C44.2304 18.9869 44.2004 25.1269 44.2504 31.2769C44.2604 33.0469 42.9104 34.1869 41.4504 34.2069C38.2404 34.2469 35.0304 34.2269 31.8304 34.2169C31.2204 34.2169 30.7904 33.7669 30.7904 33.1969C30.7904 32.6369 31.1804 32.2369 31.7804 32.1769C32.0004 32.1569 32.2204 32.1669 32.4504 32.1669C35.2604 32.1669 38.0704 32.1669 40.8804 32.1669C41.0704 32.1669 41.2604 32.1669 41.4504 32.1469C41.9804 32.0869 42.2004 31.8469 42.2004 31.2969C42.2004 30.4869 42.2004 29.6769 42.2004 28.8669C42.2004 24.0569 42.2004 19.2369 42.2004 14.4269V13.7869L42.1904 13.7969ZM22.2804 40.3469C24.2504 40.3269 25.9204 39.9769 27.4604 39.1569C28.9004 38.3869 28.9504 38.2269 28.3404 36.6869C27.6904 35.0369 26.7204 33.5669 25.6504 32.1669C25.3304 31.7369 24.9304 31.3569 24.5204 31.0169C23.7004 30.3469 23.1204 30.3269 22.2104 30.8469C21.6204 31.1869 21.0404 31.5669 20.4304 31.8469C19.9504 32.0669 19.4204 32.2869 18.9004 32.3169C16.8104 32.4369 15.2004 31.5269 14.1304 29.7569C12.5704 27.1569 11.0804 24.5269 9.56043 21.8969C9.38043 21.5869 9.23043 21.2469 9.12043 20.8969C8.53043 19.0769 8.86043 16.3169 11.3004 15.1569C11.8304 14.9069 12.3104 14.5669 12.8304 14.2869C13.5304 13.8969 13.7804 13.2869 13.6904 12.5269C13.6404 12.1069 13.5704 11.6669 13.4204 11.2769C12.7404 9.46686 11.8604 7.76686 10.6804 6.23686C10.3804 5.83686 9.97043 5.50686 9.58043 5.19686C9.46043 5.09686 9.18043 5.07686 9.03043 5.14686C8.55043 5.38686 8.06043 5.63686 7.63043 5.95686C4.67043 8.13686 3.15043 11.0869 3.06043 14.7469C2.99043 17.9069 3.88043 20.8369 5.40043 23.5669C7.08043 26.5769 8.83043 29.5369 10.5804 32.4969C11.5104 34.0769 12.6804 35.4869 14.0404 36.7169C16.4404 38.8969 19.1704 40.3069 22.2704 40.3469H22.2804ZM41.0904 12.0569H15.7204C15.8204 13.1069 15.6404 14.0669 15.0604 14.9169C15.2804 15.0769 15.4804 15.2169 15.6704 15.3569C18.7804 17.7969 21.8804 20.2369 24.9904 22.6769C26.0504 23.5069 26.5304 23.5069 27.6004 22.6669C30.8704 20.0969 34.1404 17.5269 37.4104 14.9669C38.6204 14.0169 39.8204 13.0669 41.1104 12.0569H41.0904Z" fill="white"></path></svg>