<svg xmlns="http://www.w3.org/2000/svg" width="45" height="45" viewBox="0 0 45 45" fill="none"><path d="M22.0415 41.9341C21.7515 41.6541 21.4215 41.4141 21.1915 41.1041C18.9515 37.9141 16.7015 34.7341 14.5215 31.4941C12.7215 28.8241 11.1515 26.0141 10.0715 22.9541C9.39151 21.0441 8.97151 19.0941 9.00151 17.0541C9.09151 11.3241 13.0215 6.17405 18.5315 4.55405C25.8315 2.41405 33.3315 6.66405 35.2615 14.0141C35.9915 16.8141 35.7115 19.5641 34.8415 22.2841C33.8815 25.2541 32.4515 27.9941 30.7415 30.5841C28.7515 33.5841 26.6615 36.5241 24.6215 39.4941C24.2515 40.0341 23.9015 40.5841 23.5015 41.1041C23.2615 41.4141 22.9415 41.6641 22.6515 41.9341H22.0615H22.0415ZM22.3415 38.8141C22.3915 38.7541 22.4315 38.7141 22.4715 38.6641C24.3415 35.9841 26.2515 33.3241 28.0815 30.6141C29.8315 28.0241 31.3915 25.3241 32.4615 22.3641C33.2215 20.2741 33.6615 18.1341 33.3615 15.9041C32.5615 9.93405 27.2715 5.68405 21.2615 6.29405C17.1015 6.71405 14.0915 8.91405 12.2615 12.6641C10.9415 15.3641 10.9515 18.1841 11.7815 21.0341C12.5415 23.6541 13.7815 26.0441 15.1715 28.3641C17.3215 31.9441 19.8315 35.2741 22.2315 38.6941C22.2615 38.7341 22.2915 38.7641 22.3415 38.8141V38.8141Z" fill="white"></path><path d="M15.6715 17.334C15.6715 13.664 18.6715 10.664 22.3415 10.674C26.0115 10.674 29.0115 13.674 29.0015 17.344C29.0015 21.014 26.0015 24.014 22.3315 24.014C18.6615 24.014 15.6615 21.014 15.6715 17.344V17.334ZM22.3415 21.784C24.7915 21.784 26.7915 19.774 26.7815 17.324C26.7815 14.894 24.7815 12.894 22.3515 12.894C19.9015 12.894 17.8915 14.884 17.8915 17.334C17.8915 19.784 19.8915 21.784 22.3415 21.784Z" fill="white"></path></svg>